<svg enable-background="new 0 0 200 200" height="316.227766" viewBox="0 0 200 200" width="316.227766" xmlns="http://www.w3.org/2000/svg"><g fill="#9b0000"><path d="m0 0c0 37.6-30.5 68-68 68-37.6 0-68-30.4-68-68s30.4-68 68-68c37.5 0 68 30.4 68 68" transform="translate(168.0351 100.0046)"/><path d="m0 178.2c-11.5-4.9-21.9-11.8-30.7-20.7-8.9-8.9-15.9-19.2-20.7-30.7-5-11.9-7.6-24.6-7.6-37.6s2.6-25.7 7.6-37.6c4.9-11.5 11.8-21.9 20.7-30.7 8.9-9.1 19.2-16 30.7-20.9 11.9-5 24.6-7.6 37.6-7.6 13.1 0 25.8 2.6 37.7 7.6 11.5 4.9 21.8 11.8 30.7 20.7s15.8 19.2 20.7 30.7c5.1 11.9 7.6 24.6 7.6 37.6s-2.6 25.7-7.6 37.6c-4.9 11.5-11.8 21.8-20.7 30.7s-19.2 15.8-30.7 20.7c-11.9 5-24.6 7.6-37.6 7.6-13.1.2-25.8-2.4-37.7-7.4m-1.3-181.2c-11.9 5-22.6 12.2-31.8 21.4s-16.4 19.9-21.4 31.8c-5.2 12.3-7.9 25.4-7.9 38.9s2.6 26.6 7.9 38.9c5 11.9 12.3 22.6 21.4 31.8 9.2 9.2 19.9 16.4 31.8 21.4 12.3 5.2 25.4 7.9 38.9 7.9s26.6-2.6 38.9-7.9c11.9-5 22.6-12.3 31.8-21.4 9.2-9.2 16.4-19.9 21.4-31.8 5.2-12.3 7.9-25.4 7.9-38.9s-2.6-26.6-7.9-38.9c-5-11.9-12.3-22.6-21.4-31.8s-19.8-16.4-31.7-21.4c-12.3-5.2-25.4-7.9-38.9-7.9-13.6 0-26.7 2.6-39 7.9" transform="translate(62.3636 10.9087)"/><path d="m0 132.2c-8.5-3.6-16.2-8.8-22.8-15.4s-11.8-14.3-15.4-22.8c-3.7-8.8-5.6-18.2-5.6-27.9s1.9-19.1 5.6-27.9c3.6-8.5 8.8-16.2 15.4-22.8s14.3-11.8 22.8-15.4c8.8-3.7 18.2-5.6 27.9-5.6s19.1 1.9 27.9 5.6c8.6 3.6 16.2 8.8 22.8 15.4s11.8 14.2 15.4 22.8c3.7 8.8 5.6 18.2 5.6 27.9s-1.9 19.1-5.6 27.9c-3.6 8.5-8.8 16.2-15.4 22.8s-14.3 11.8-22.8 15.4c-8.8 3.7-18.2 5.6-27.9 5.6s-19.1-1.9-27.9-5.6m-.9-134.3c-8.8 3.8-16.7 9.1-23.5 15.9s-12.1 14.7-15.8 23.5c-3.9 9.1-5.8 18.8-5.8 28.8s2 19.7 5.8 28.8c3.7 8.8 9.1 16.7 15.8 23.5 6.8 6.8 14.7 12.1 23.5 15.9 9.1 3.9 18.8 5.8 28.8 5.8s19.7-2 28.8-5.8c8.8-3.7 16.7-9.1 23.5-15.9s12.1-14.7 15.9-23.5c3.8-9.1 5.8-18.8 5.8-28.8s-2-19.7-5.8-28.8c-3.7-8.8-9.1-16.7-15.9-23.5-6.8-6.8-14.7-12.1-23.5-15.9-9.1-3.9-18.8-5.8-28.8-5.8s-19.6 2-28.8 5.8" transform="translate(72.0809 33.9178)"/><path d="m0-132.4c0-.9 0-1.7-.1-2.2l-.1-.6-.2-.7c0-.2.2-.3.5-.4h.5l.9-.1c.7 0 1.2 0 1.4.2.2.1.4.2.4.3 0 .2-.2.5-.6.9-.3.9-.8 2.2-1.6 3.9l2.7 3.2c.2.2.4.4.6.4s.6-.2 1.1-.8c.4-.4.6-.7.7-1.1s0-.9-.3-1.5l-.3-.7c-.1-.3-.1-.6.1-.6.2-.1.4-.1.5.1l.2.4.4.6c.1.2.3.4.5.6s.4.3.8.4c.3.1.6.2.7.3.2.1.3.3.3.5s.1.3 0 .5c0 .2-.1.5-.3.9-.1.4-.8 1.1-2 2.2s-2.1 1.6-2.6 1.7c-.5 0-.8-.1-1.1-.3s-.5-.5-.8-.8l-6.6-7.7-1.8-1.8c0-.1 0-.2 0-.2 0-.1.1-.2.3-.3 1.6-1.1 2.5-1.6 2.8-1.2.1.1.1.4 0 1zm-1.5 8.2v.2.9 1.3l-.1 1.4c0 .2 0 .3-.1.4 0 0-.1 0-.3 0l-2.5-1.3c-.3-.1-.4-.3-.5-.3 0-.1 0-.2 0-.3l.4-.4.3-.4c.4-.5.9-1.5 1.6-3l-2.5-2.9-2 1.7-.8.7-1.5-.7.9-.7 2.4-2.1-1.3-1.6-1.5-1.5c-.1-.1 0-.2.1-.3.3-.2.8-.5 1.5-1 .7-.4 1.2-.6 1.3-.5s.2.4.1 1l7.8 9 1 1c.1.1.1.3.1.6s-.2.6-.7 1.1c-.2.7-.5.9-.7.9-.1 0-.3 0-.4-.1l-1-1.4z" transform="translate(44.1436 166.2146)"/><path d="m0-147.7.4-.2c1-.4 1.9-.5 2.6-.5.8 0 1.4.1 1.8.3s.7.4 1 .8c.2.4.3.8.2 1.3s-.4.9-.8 1.1c-.5.2-.9.3-1.2.1-.2-.1-.5-.3-.8-.7s-.5-.6-.6-.8c-.1-.1-.4-.3-.8-.5s-.8-.3-1.2-.3h-.3c-.1 0-.2 0-.3-.1-.1 0-.1-.1-.2-.3-.1 0 0-.2.2-.2m-6.2-.7.6 1.2 4.7-2.4-.6-1.2zm-.5-1.2 4.5-2.3c.1-.7.2-1.1.3-1.3.1-.1.3-.1.8-.1 1 0 1.6.1 1.8.1.3 0 .4.1.5.2 0 .1 0 .5-.2 1.1l.5 1 .6 1c0 .2-.1.3-.2.6-.1.2-.4.4-.7.7-.3.2-.6.4-.9.5-.3.1-.5.1-.5-.1l-.1-.3-.8.4 2 4c.3.6.4 1 .4 1.3s-.2.6-.4.8c-.2.3-.7.6-1.4 1-.2.1-.3.2-.4.2s-.2 0-.3 0-.2-.1-.3-.3-.3-.4-.6-.5c-.2-.2-.6-.3-1-.2l-.4.1c-.1 0-.2 0-.3 0s-.2-.1-.2-.3c-.1-.1 0-.3.2-.4l.5-.2.7-.3c.5-.2.7-.6.5-1l-1.5-2.9-1.4.8c0 .1 0 .3-.1.4 0 .1-.2.3-.5.5 1.5-.2 2.2-.2 2.3-.2.1.1.2.1.2.3.1.1 0 .3-.3.5-.8 2.2-1.6 3.8-2.6 5.1l-.3.4c-.2.3-.4.5-.5.5s-.2 0-.3-.1-.1-.2-.1-.4.1-.5.2-.9l.2-.7c.2-.5.3-1.1.3-1.7s.1-1.4.1-2.3c-.2.1-.3.2-.4.2s-.2 0-.4 0c-.1 0-.2-.1-.3-.2l-.7-1.8-.5-.8-1-1.7c-.1-.2 0-.3.1-.4s.4-.2.9-.1c.7-.2 1.3-.2 2-.2m-4 .5-.7.4-1.2-1 .9-.4 5.1-2.6c-.1 0-.1 0-.2-.1 0 0-.1-.1-.2-.2s-.1-.2-.2-.3l-.2-.4c-.2-.3-.4-.5-.7-.6l-.3-.1c-.1 0-.2-.1-.3-.1-.1-.1-.1-.2-.1-.3s.1-.3.4-.3l.5-.2c.8-.3 1.5-.4 2.1-.4s1 .3 1.3.8c.2.3.2.6.2.7l-.1.3 2.7-1.4c.3-.9.4-1.4.5-1.6s.2-.3.3-.4c.1 0 .2-.1.5 0 .2 0 .6.2 1.3.5.6.3.9.5 1 .7s0 .3-.2.5z" transform="translate(63.7974 173.8676)"/><path d="m0-167 4.7-1.1c0-.1-.1-.3-.1-.5s-.1-.5-.2-1-.2-.8-.3-1.1-.1-.6-.3-1c-.1-.4-.2-.7-.2-.8s0-.2.1-.2c0 0 .1-.1.3-.1.8-.1 1.5-.2 2.1-.3s1 .1 1.1.3 0 .5-.3.9c0 .4.1.7.1.9l.3 1.8.1.4 2.7-.6c.2-.4.5-.8.7-1.2s.4-.7.5-.7h.4c.2.1.6.4 1.2.9s1 .8 1 .9c.1.3 0 .4-.1.5s-.3.1-.6.2l-5.1 1.2c1 1.3 1.6 2.1 2 2.4.4.4 1 .8 1.9 1.4.8.6 1.8.9 2.7 1.1l1 .2c.2 0 .3.2.3.3s0 .2-.1.2l-.2.1-.3.2c-.2.1-.3.3-.5.4-.1.1-.2.3-.3.5s-.2.4-.3.8-.3.6-.4.7-.4 0-.9-.2c-.9-.4-1.6-.8-2.1-1.3s-1-1.1-1.5-1.7c-.5-.7-.8-1.1-.8-1.2l-1-1.8c0 .5.1 1.1.1 1.8 0 .6-.2 1.4-.5 2.2s-.9 1.6-1.7 2.4-1.4 1.3-1.8 1.6-.9.6-1.5.9l-.2.4c-.3.2-.5.2-.6.1s-.2-.3-.2-.4.1-.3.2-.3l.4-.4c.7-.6 1.3-1.4 1.8-2.2.5-.9.9-1.5 1.1-2.1.2-.5.3-1.1.4-1.8s.1-1.3 0-1.8l-.1-1.6-4 .9-1 .3-1-1.3z" transform="translate(73.1038 183.4931)"/><path d="m0-165 .6.2 2.9.8c.1-.2.1-.4.2-.5l.2-.5c.1-.3.2-.5.3-.8l.1-.3v-.1l-1.1-.3c-.7.4-1.3.7-1.7.9l-.4.2c-.4.2-.7.2-.8 0s0-.4.2-.7l.3-.4c.1-.1.3-.3.5-.6s.4-.5.5-.6l.4-.7c.2-.3.3-.5.3-.5l.2-.5.1-.1-1.6-.4zm-.2.6-1.3 5.2 8.4 2.2c.9-.6 1.5-.8 1.6-.8s.3.1.4.2.2.3.4.6.3.6.4 1c.1.3.1.6.1.7-.1.1-.2.2-.4.1l-11-2.9c-.5.4-.9.6-1.1.6s-.4-.2-.7-.4c-.9-1-1.4-1.6-1.3-1.9 0-.1.3-.3.8-.7l2.8-10.5.3-1.6c0-.1.1-.2.1-.2.1 0 .2 0 .4.2l2 1.5 7.7 2c.8-.7 1.3-1 1.5-1s.3.1.5.2c.1.1.3.4.5.7.2.4.4.7.5 1.1.1.3.1.6 0 .7-.1.2-.3.2-.5.1l-8.1-2.1c1.7.7 2.4 1.1 2.3 1.4-.2.3-.5.4-1 .3-.2.1-.3.2-.4.3l3 .8c.8-.4 1.2-.6 1.3-.7s.2-.1.3-.1.2.1.4.3.4.5.6 1.1c.2.5.3.9.2 1.1s-.3.2-.5.1l-3-.8c0 .1-.1.1-.1.2 0 0 0 .1-.1.2 0 .1-.1.4-.3.9s-.3.8-.3.9l1.5.4c.3-.2.7-.5 1-.8.4-.3.6-.4.8-.4.1 0 .3.1.4.3.2.3.5.7.7 1.2.2.4.3.8.3 1s0 .4-.1.5-.2.2-.5.1l-4.6-1.2-.2.3c1.3.6 2.1 1 2.4 1.4s.5.7.5 1c.1.3.1.6 0 .9s-.2.5-.5.7-.6.3-1.1.3-.8-.1-.9-.5c-.2-.3-.2-.6-.3-.9l-.1-.8c-.1-.5-.3-1-.6-1.4-.3.4-.7.7-1.2 1-.4.3-1 .6-1.8.8s-1.5.3-2.1.3h-.3c-.3 0-.5 0-.6-.1s-.1-.2-.2-.3c0-.1.1-.3.2-.3l.4-.1.8-.3c.1-.1.4-.2.8-.5s.7-.5 1-.7.6-.7 1.1-1.3l-2.3-.6-.7-.2z" transform="translate(117.9186 182.4886)"/><path d="m0-148.1c.2.3.3.5.4.8s.2.4.2.5c.3-.2.5-.3.8-.5zm-.9-7.1c.1-.2.2-.3.5-.1s.7.7 1.3 1.5.8 1.5.5 2.1-.5 1-.8 1.2c-.6.4-1.1.4-1.7 0-.5-.3-.8-.6-.8-1.1 0-.4.1-.8.3-1l.4-.5c.1-.1.1-.3.2-.5s.1-.4.1-.6.1-.4 0-.6c-.1-.3-.1-.4 0-.4m-3.6-1.4c.1-.1.1-.1.3-.1.1 0 .6.4 1.5 1.1s1.1 1.5.8 2.2-.6 1.1-.7 1.3c-.2.2-.5.3-.9.3s-.7-.1-1-.3-.5-.5-.6-.7c0-.2 0-.5 0-.6.1-.2.2-.5.4-.8.2-.4.3-.7.3-1s0-.5 0-.7c-.1-.4-.1-.6-.1-.7m-1.6 5.2s0 .1 0 0c-.1.1-.1.2-.1.2l-.1.3-.2.3.9.6 3.7 2c.4-.1.8-.2 1.3-.4zm-.7 1.2c-.3.2-.6.3-.9.5-.3.1-.7 0-1.2-.2-.4-.2-.7-.6-.8-.9-.1-.4-.1-.7.1-.9.1-.2.3-.4.4-.5l.6-.3.6-.1c.3-.1.5-.2.7-.3.1-.1.2-.3.3-.4l.2-.4c.1-.1.2-.2.3-.3.2-.1.3 0 .4.3 0 .1.1.3.1.6s.1.6.1.7l5.6 3c.1-.1.3-.2.3-.2.1-.1.3-.3.6-.6l.9-.9c.3-.3.6-.6.9-1l.4-.5.2-.3h.3c.4.3.9.8 1.3 1.2.4.5.7.9.9 1.2s.1.5-.1.7c-.1 0-.4 0-.8 0-1.2.4-2.3.8-3.4 1.1l.8.4h.1l.5-.1c.3-.1.5-.1.6-.1s.3.2.5.5c.3.5.5 1 .6 1.6s.1 1-.1 1.3-.4.3-.8.1c0 0-.1-.1-.3-.2s-.3-.2-.5-.3c-.5-.2-1.2-.3-2-.2 0 .3 0 .5-.1.6s-.2.1-.3.1-.5-.1-1-.4c-.6-.3-1-.4-1.2-.4h-.4c.3.4.4.7.3.9s-.3.2-.7.1l2 1.1c1.1-.4 1.7-.5 1.9-.6.2 0 .3 0 .5.1.1.1.3.2.4.5.3.6.4 1.1.4 1.6s-.1.9-.2 1.1-.3.2-.5.1l-5-2.7-1.2 2.2c-.3.5-.6.8-1.1 1-.4.2-1.2-.1-2.3-.6-.2-.1-.3-.2-.4-.2-.1-.1-.1-.1-.1-.2s.1-.3.2-.7-.1-.9-.7-1.6l-.3-.3c-.1-.1-.1-.1-.1-.2s0-.2.1-.4.3-.2.5 0l.4.3.6.5c.4.3.6.4.8.4.1 0 .3-.1.4-.3l.6-1.1-4.3-2.3-.9-.4v-1.7l.9.6 4.8 2.6v-.1l.6-1.3c0-.1.1-.1.1-.1.1 0 .1 0 .2.1.5.4.9.7 1.2.9.2-.1.4-.2.6-.4l-3.3-2.1-.6-.2z" transform="translate(144.8879 174.0594)"/><path d="m0-124.2-.7-.7-5.6 6.1c.3.4.6.7.8.7s.4 0 .7-.2c.2-.1.5-.4.7-.8.3-.6.6-1.2.7-1.8l.1-.6c0-.2.1-.4.1-.4 0-.1.2-.2.4-.3l.7-.4c.4-.3 1.1-.8 2.1-1.6m-8.4-6.3-.6-.5.5-1.5.7.6 1.6 1.6c0-.2 0-.3 0-.4s.1-.2.2-.3c0 0 .1-.1.2-.2s.2-.2.3-.2c.2-.2.3-.5.3-.7v-.3c0-.1.1-.2.2-.3s.3 0 .5.3l.4.5c.4.6.5 1.1.5 1.5-.1.4-.2.7-.3.9-.3.3-.6.4-1 .3l.7.6c.6-.1.9-.1 1.1-.1.1 0 .3 0 .4.1s.1.1.1.3v.8c0 .4 0 .7-.1 1s-.1.4-.3.5c-.1.1-.3 0-.5-.1zm8.5 4.8.6.5c.7-.2 1.1-.3 1.3-.2.1.1.3.3.4.5.1.3.2.7.4 1.4s.2 1.1 0 1.3c-.1.1-.5.1-1 0-.4.1-1.7.5-3.8 1.2.3 1.4.3 2.6-.1 3.3-.4.8-.7 1.3-1.1 1.7-1.2 1.2-2.4 1.2-3.8.2-.2-.1-.3-.3-.3-.4s0-.2 0-.3.1-.2.3-.5.2-.7.1-1.2l-1.2 1.3-.9 1.1c-.3.1-.6 0-1-.2s-.7-.4-.8-.6-.2-.4-.2-.6l1.2-1.2 7.3-7.9 1.4-1.7h.3c.1 0 .2.2.3.4zm-11.9-1.8-.6-.5.4-1.5.7.7 1.3 1.2c-.1-.3-.1-.6.2-.9 0 0 .1-.1.3-.2.1-.1.3-.3.5-.4.2-.2.3-.3.3-.5l.1-.2v-.2c0-.1.1-.2.2-.2s.2 0 .4.2c.1.2.3.4.5.8s.3.8.1 1.3c-.1.4-.3.8-.5.9-.3.3-.6.4-1.1.4l.6.6c.2-.1.3-.2.4-.3s.3-.2.6-.4l.6-.5c.2-.2.4-.3.5-.5s.2-.2.3-.2.2.1.4.4.4.8.7 1.2c.2.5.2.8 0 .9s-.4 0-.7-.2c-.7.2-1.3.3-1.9.4l.4.4c.9-.1 1.4-.1 1.5 0 .2.2.2.6 0 1.2s-.4 1-.5 1c-.2 0-.4-.1-.6-.3zm0 3.3-1.2 1.2 1.4 1.3 1.1-1.3zm.8-1 1.3 1.2c.6-.2.9-.2 1.1-.1s.4.5.6 1.3.3 1.2.1 1.4c-.1.1-.4.2-.9.2l-1 1.1-1 1.2c-.3.2-.7.1-1.1-.1s-.7-.4-.9-.7-.3-.5-.1-.7l.4-.4-1.4-1.3-.5.5c-.1.1-.2.2-.3.2s-.3 0-.6-.2c-.3-.1-.6-.4-1-.8-.1-.1-.2-.2-.2-.3s0-.2.1-.3l1.4-1.4 1.6-1.7c.8-.9 1.2-1.3 1.2-1.3.1 0 .1.1.2.2l.2.3z" transform="translate(165.5281 162.0822)"/><path d="m0-83.5c0 .5.5 1 1.3 1.5.6.3 1.1.5 1.5.5.5 0 .8-.3 1.1-.8.1-.2.2-.4.2-.6 0-.1-.1-.2-.3-.4l-3.3-1.9c-.3.9-.5 1.4-.5 1.7m-1.5-6.8c-.2.4-.3.8-.2 1s.3.5.7.7l5.4 3.2c.5.3.8.4 1 .3s.4-.3.7-.7l.3.2-2.3 4c-.5.9-1.1 1.6-1.8 2s-1.4.3-2.2-.2c-.4-.2-.7-.6-1-1-.2-.4-.3-.9-.2-1.6.1-.5.2-.9.4-1.3s.5-.9.9-1.7l-2.4-1.3c-.4-.3-.8-.4-1-.3s-.5.3-.7.7l-.3-.2 2.4-4.1z" transform="translate(25.7181 141.7352)"/><path d="m0-80.1.3.1c-.1.4-.2.7-.2.9 0 .3.2.5.6.7l6.3 2.7c.4.2.7.2.9 0 .1-.1.3-.3.5-.7l.3.1-3.3 7.5-2.6-1.1.1-.3c.9.2 1.6.2 2.1-.1s1-.9 1.4-2c.2-.4.2-.7.2-.8 0-.2-.2-.3-.4-.4l-3-1.3c-.2.7-.3 1.3-.2 1.6.2.4.6.8 1.2 1.3l-.2.3-4.3-1.9.1-.3c.8.2 1.4.3 1.8.1s.8-.6 1.1-1.3l-3.1-1.4c-.3-.1-.5-.1-.7 0s-.3.4-.5.8c-.2.8-.4 1.6-.3 2.2.1.7.5 1.4 1.2 2.2l-.2.4-2.5-1.7z" transform="translate(18.9689 140.0639)"/><path d="m0-59.7c-.1.4-.1.7-.1.8.1.3.3.5.7.6l6.6 1.9c.4.1.7.1.9-.1.1-.1.3-.4.4-.8l.3.1-1.3 4.6-.3-.1c.1-.5.1-.8 0-1s-.4-.4-.9-.5l-2.9-.8 2.1 3.8c.1.3.3.4.3.5.1.1.2.1.3.2.2.1.3 0 .4-.1.1-.2.2-.4.4-.9l.3.1-1.1 3.9-.3-.1c.2-.7.1-1.4-.1-1.9-.2-.6-.8-1.7-1.7-3.3l-6.4 2.6c-.1.1-.2.1-.3.2s-.1.2-.2.4l-.3-.1 1.3-4.6.3.1c-.1.4-.2.7-.2.9s0 .3.2.3h.2c.1 0 .3-.1.4-.2l3.8-1.6-.2-.4-2.6-.8c-.4-.1-.7-.1-.9.2-.1.1-.3.4-.4.7l-.3-.1 1.3-4.6z" transform="translate(14.9961 129.8402)"/><path d="m0-36.2c-.1.4-.1.7 0 .9.1.3.4.5.8.6l6.8 1.2c.4.1.7 0 .9-.3.1-.2.2-.4.3-.8l.3.1-.8 4.9-.4-.1c.1-.4.1-.7 0-.9-.1-.3-.4-.5-.8-.6l-6.8-1.2c-.4-.1-.7 0-.8.2-.2.2-.3.5-.4.9l-.4-.1.9-4.9z" transform="translate(11.8818 118.1142)"/><path d="m0-23c0 .5.1.9.2 1 .2.2.5.3.8.3l6.7.5c.5-.4.8-.6.9-.7s.2-.2.2-.4h.4l-.2 3-6.3 4.4v.1l4.2.3c.5 0 .8 0 1-.2s.4-.5.4-1h.3l-.2 3h-.3c-.1-.5-.1-.8-.2-.9-.1-.2-.4-.3-.8-.3l-8.4-.6v-.4l8.1-5.7v-.1l-5.5-.3c-.4 0-.8 0-.9.1-.3.2-.5.5-.6 1.1h-.3l.2-3.2z" transform="translate(10.69 111.4886)"/><path d="m0 2.7c1 .9 1.6 2.1 1.7 3.5 0 .6 0 1.2-.2 1.8s-.3 1-.3 1.1c0 .2.1.3.2.4s.3.2.5.2v.4l-3.3.2v-.4c.7-.4 1.3-.8 1.6-1.2.8-.7 1.1-1.5 1-2.3 0-.9-.5-1.6-1.3-1.9-.8-.4-1.9-.6-3.4-.5-1.2.1-2.2.3-3.1.8-.9.4-1.3 1.2-1.2 2.3 0 .6.2 1 .5 1.2.1.2.3.2.6.2l1.5-.1c.4 0 .7-.2.8-.5.1-.2.1-.5.1-1h.4l.3 4.8h-.3c-.1-.5-.2-.8-.4-.9s-.5-.2-1-.2l-1.8.1c-.2-.3-.4-.8-.7-1.5-.2-.7-.4-1.5-.4-2.3-.2-1.6.2-2.9 1.1-3.9.9-.9 2-1.4 3.4-1.5 1.5-.1 2.7.3 3.7 1.2" transform="translate(17.9643 98.6667)"/><path d="m0 38.7-.3.1c-.2-.5-.3-.9-.5-1s-.6-.1-1.1 0l-4.6 1.1c-.7.2-1.2.4-1.6.7-.6.5-.8 1.1-.6 2 .3 1.1.8 1.7 1.7 1.8.5.1 1.1.1 1.9-.1l4.2-1c.5-.1.8-.3 1-.5.1-.2.2-.6.1-1.2l.3-.1.7 3-.3.1c-.2-.4-.4-.7-.5-.8-.2-.1-.5-.1-.9 0l-4.5 1.1c-1.2.3-2.1.2-2.9-.2s-1.3-1.2-1.6-2.4c-.4-1.6-.2-2.8.6-3.6.4-.4 1-.8 1.8-1l4.6-1.1c.5-.1.8-.3.9-.4.1-.2.1-.5.1-1l.3-.1z" transform="translate(21.6677 80.6484)"/><path d="m0 56.4c.2.5.4.8.7.8.2.1.5 0 .9-.1l6.3-2.5c.3-.6.5-.9.5-1.1.1-.1.1-.3 0-.4l.3-.1 1.1 2.8-3.8 6.8v.1l3.9-1.5c.4-.2.7-.4.9-.6.1-.2.1-.6 0-1.1l.3-.1 1.1 2.8-.3.1c-.2-.4-.4-.6-.6-.7s-.5-.1-.9.1l-7.8 3.1-.1-.4 4.8-8.6v-.1l-5.2 2c-.4.2-.7.3-.8.5-.2.3-.2.7 0 1.3l-.3.1-1.2-3z" transform="translate(14.4664 71.7808)"/><path d="m0 77.6c.2.3.4.6.5.7.3.2.6.2 1 0l6.1-3.1c.4-.2.6-.4.6-.7 0-.2-.1-.5-.3-.9l.3-.2 2.3 4.4-.3.2c-.2-.4-.4-.6-.6-.7-.2-.3-.6-.3-.9-.1l-6.1 3.1c-.4.2-.6.5-.6.7 0 .3.1.6.3 1l-.3.2-2.3-4.4z" transform="translate(18.8319 61.21)"/><path d="m0 87.4-.3.2c-.3-.4-.5-.7-.6-.8s-.3-.1-.5.1c-.1 0-.1.1-.2.1 0 .1-.1.1-.1.2l-3.2 4.8 5.1-1.1c.1 0 .2-.1.3-.1.2 0 .3-.1.4-.2.2-.1.3-.3.3-.5s-.2-.5-.4-.9l.3-.2 1.6 2.5-.3.2c-.2-.3-.4-.4-.7-.5-.2-.1-.6 0-1 0l-8.7 2-.2-.3 5.2-7.7c.2-.3.3-.6.4-.8 0-.2 0-.5-.2-.7l.3-.2z" transform="translate(32.207 56.2785)"/><path d="m0 109.3.3-.2c.3.3.5.5.7.6.3.1.6 0 .9-.2l5.3-4.4c.3-.3.5-.6.4-.9 0-.2-.2-.4-.4-.8l.3-.2 5.3 6.3-2.2 1.8-.2-.3c.6-.7.9-1.4.9-1.9 0-.6-.4-1.3-1.1-2.1-.3-.3-.5-.5-.6-.5s-.3 0-.5.2l-2.5 2.1c.5.6 1 1 1.4 1s1-.2 1.7-.5l.2.3-3.6 3-.2-.3c.5-.6.8-1.1.9-1.6.1-.4-.2-1-.7-1.6l-2.6 2.2c-.2.2-.3.4-.3.6s.2.5.5.8c.6.7 1.2 1.1 1.8 1.3s1.5.2 2.5-.1l.2.3-2.6 1.5z" transform="translate(28.0195 45.3516)"/><path d="m0 125.6c.5.1 1-.2 1.6-.9.4-.4.6-.8.7-1.1.2-.6 0-1.1-.5-1.6-.3-.3-.5-.4-.6-.4s-.3.1-.4.2l-2.5 2.7c.7.6 1.2 1 1.7 1.1m-7.4-.2c.4.3.7.5.9.5s.5-.2.9-.6l4.3-4.6c.4-.4.5-.7.5-1 0-.2-.2-.5-.5-.8l.2-.3 3.4 3.1c.7.6 1.2 1.2 1.5 1.8.6 1.1.5 2-.2 2.8-.5.5-1.2.8-1.9.7-.5-.1-1.1-.2-1.5-.5l-.5 5v.3c0 .1.1.2.2.3l-.2.3-2.2-2 .6-5.5-1.9 2c-.3.4-.5.7-.5.9s.2.5.5.9l-.2.2-3.5-3.3z" transform="translate(42.7234 37.2146)"/><path d="m0 136.2.3.2c-.4 1-.6 1.8-.5 2.5s.4 1.2 1 1.6c.5.4 1 .5 1.4.4s.7-.3.9-.6.3-.7.3-1.1c-.1-.3-.2-.7-.5-1.2l-.5-.9c-.5-.9-.7-1.6-.7-2.2s.1-1.1.5-1.7 1-.9 1.7-1.1 1.5 0 2.3.6c.4.3.8.7 1 1.1.3.4.5.6.5.7.1.1.2.1.3.1s.2-.1.3-.2l.3.3-1.8 2.5-.3-.2c.3-.7.4-1.4.3-2.1s-.4-1.2-.9-1.6c-.4-.3-.8-.4-1.1-.3-.4 0-.7.2-.9.5-.3.4-.4.7-.3 1s.3.9.8 1.8l.5 1c.2.5.4.9.4 1.3.1.7-.1 1.4-.5 2s-1 .9-1.9 1.1c-.8.2-1.7-.1-2.7-.8-.2-.2-.4-.4-.6-.6s-.4-.4-.5-.7l-.2-.3s-.1-.1-.1-.1c0-.1-.1-.1-.1-.1-.1-.1-.2-.1-.3-.1s-.2.1-.3.2l-.3-.2z" transform="translate(45.8514 31.8767)"/><path d="m0 151.1c.3.2.6.3.8.3.3 0 .6-.1.8-.5l3.6-5.9c.2-.4.2-.7.1-.9s-.3-.4-.7-.6l.2-.3 4.2 2.6-.2.3c-.4-.2-.7-.3-.8-.3-.3 0-.6.2-.8.5l-3.6 5.9c-.2.3-.3.6-.1.9.1.2.4.5.7.7l-.2.2-4.2-2.6z" transform="translate(51.1896 24.4475)"/><path d="m0 141.6 7.7 3.7-1.2 2.6-.4-.2c.3-1 .3-1.8-.1-2.4-.2-.3-.7-.7-1.3-1l-3.3 6.7c-.2.5-.3.8-.2 1.1.1.2.4.5.9.7l-.2.3-4.6-2.2.2-.3c.5.2.9.3 1.1.3.2-.1.5-.3.7-.8l3.3-6.7c-.6-.4-1.1-.5-1.6-.5-.8.1-1.4.5-1.9 1.4l-.4-.2z" transform="translate(61.0439 29.2192)"/><path d="m0 152.8-.1.3c-.5-.1-.8-.2-.9-.2s-.2.1-.3.2v.2.5l.7 3.8 2.2-1.9c.1-.1.3-.3.5-.4.3-.3.4-.5.5-.7s0-.4-.1-.6c-.1-.1-.4-.2-.8-.4l.1-.3 3 1-.1.3c-.2 0-.4 0-.6 0s-.4.1-.5.3l-4 3.3-.8 2.5c-.2.5-.2.9-.1 1.1s.4.4.9.6l-.1.3-4.7-1.6.1-.3c.5.1.9.2 1.1.1s.4-.4.6-.9l.7-2-1-5.3c-.1-.4-.2-.6-.4-.8-.1-.1-.3-.2-.4-.3l.1-.3z" transform="translate(74.1267 23.5753)"/><path d="m0 176.3h.8c.3-.1.5-.4.5-.8l1-6.8c.1-.4 0-.7-.2-.9-.1-.1-.4-.2-.8-.3l.1-.3 4.7.7v.4c-.4-.1-.7 0-.9 0-.3.1-.5.4-.5.8l-.5 2.9 3.3.5.4-2.9c.1-.4 0-.7-.3-.9-.1-.1-.4-.2-.8-.3l.1-.3 4.8.7v.4c-.4 0-.7 0-.9.1-.3.1-.4.3-.5.8l-1 6.8c-.1.4 0 .7.3.9.1.1.4.2.8.3l-.1.3-4.8-.7.1-.4h.9c.3-.1.5-.4.5-.8l.5-3.2-3.4-.5-.5 3.2c-.1.4 0 .7.3.9.2.1.4.2.8.3l-.1.3-4.6-.8z" transform="translate(81.5745 11.8356)"/><path d="m0 180.3v-.4c.4 0 .7-.1.9-.1.3-.1.4-.4.4-.8l.1-6.9c0-.4-.1-.7-.4-.9-.2-.1-.4-.2-.8-.2v-.4l8.2.2-.1 2.9h-.3c-.2-.9-.5-1.6-.9-1.9-.4-.4-1.2-.5-2.3-.6-.4 0-.7 0-.8.1s-.2.3-.2.5l-.1 3.3c.8 0 1.4-.1 1.6-.4.3-.3.5-.8.7-1.6h.4l-.1 4.9h-.4c-.1-.8-.3-1.4-.6-1.7s-.9-.5-1.7-.5l-.1 3.4c0 .3.1.5.2.6.2.1.5.2 1 .2.9 0 1.6-.1 2.2-.5.6-.3 1.1-1 1.6-1.9h.4l-.6 2.9z" transform="translate(93.8216 9.8402)"/><path d="m0 172.7-1.7-3.1h-.1l-.9 3.4zm-5 3.6c.3-.1.6-.2.8-.6.1-.2.3-.6.4-1.3l2.3-8.1h.4l3.9 7.1c.4.8.8 1.3 1 1.5s.5.3.8.3v.3l-4.6.5v-.4c.5-.1.8-.1.9-.2s.2-.2.2-.5c0-.1-.1-.3-.2-.5-.1-.1-.1-.3-.2-.5l-.4-.8-3.1.3c-.1.6-.3 1-.3 1.2-.1.4-.1.6-.1.8s.2.3.5.4h.7v.3l-2.9.3z" transform="translate(109.6123 13.6301)"/><path d="m0 177.1c.4-.1.6-.2.8-.3.2-.2.3-.5.2-.9l-1.6-6.7c-.1-.4-.3-.7-.6-.7-.2-.1-.5-.1-.9 0l-.1-.3 4.8-1.1.1.3c-.6.2-.9.3-1.1.5s-.2.5 0 1.1l1.5 6.5c.1.3.2.5.4.5.2.1.5.1 1-.1.8-.2 1.5-.5 2-1s.8-1.3 1-2.5l.4-.1.2 3.3-8 1.9z" transform="translate(116.2245 11.4521)"/><path d="m0 155.3 8-2.8 1 2.7-.4.1c-.5-.9-1-1.5-1.8-1.6-.4-.1-.9 0-1.6.2l2.5 7.1c.2.5.4.8.6.9s.6.1 1.1-.1l.1.3-4.8 1.7-.1-.3c.5-.2.9-.4 1-.6s.1-.6-.1-1.1l-2.5-7.1c-.6.2-1.1.5-1.4.8-.5.6-.6 1.4-.4 2.3l-.3.2z" transform="translate(122.4074 22.3607)"/><path d="m0 165.5c.3-.2.6-.4.7-.5.2-.3.2-.6 0-.9l-3.1-6.1c-.2-.4-.4-.6-.7-.6-.2 0-.4.1-.8.2l-.2-.3 4.3-2.1.2.3c-.4.2-.6.4-.7.5-.2.3-.2.6 0 .9l1.3 2.6 3-1.5-1.3-2.6c-.2-.4-.4-.6-.7-.6-.2 0-.5.1-.9.2l-.2-.3 4.3-2.2.2.3c-.4.2-.6.4-.7.5-.2.2-.1.5 0 .9l3.1 6.1c.2.4.5.6.8.6.2 0 .5-.1.8-.2l.2.3-4.3 2.2-.2-.3c.4-.2.6-.4.7-.5.2-.3.2-.6 0-.9l-1.5-2.9-3 1.5 1.5 2.9c.2.4.4.6.8.6.2 0 .5-.1.8-.3l.2.3-4.3 2.1z" transform="translate(135.6181 17.2557)"/><path d="m0 144.2.3-.2c.8.7 1.6 1.1 2.3 1.2s1.3-.1 1.8-.5.8-.8.8-1.2-.1-.8-.3-1.1c-.3-.3-.6-.5-1-.6-.2 0-.7 0-1.3.1l-1 .2c-1 .2-1.8.2-2.3 0-.6-.1-1-.5-1.4-1s-.6-1.2-.6-2 .5-1.5 1.3-2.1c.4-.3.9-.5 1.3-.7.5-.2.7-.3.8-.3.1-.1.2-.2.2-.3s0-.2-.1-.4l.3-.3 1.8 2.5-.2.5c-.6-.5-1.2-.8-1.9-.9s-1.3 0-1.8.4c-.4.3-.6.6-.7 1s0 .7.2 1c.3.4.6.6.9.6s1 0 1.9-.2l1.2-.2c.5-.1 1-.1 1.4 0 .7.1 1.3.5 1.8 1.1.4.6.6 1.3.5 2.1-.1.9-.6 1.6-1.6 2.4-.2.2-.5.3-.7.4-.3.1-.5.2-.8.3h-.3c-.1 0-.1.1-.2.1s-.1 0-.1.1c-.1.1-.2.2-.2.3s0 .2.1.4l-.3.1z" transform="translate(148.7374 27.8996)"/><path d="m0 115.4c.6-.3.9-.4 1-.4.1-.1.2-.3.2-.5s-.1-.3-.1-.5l.3-.3 2.3 2.4-.3.2c-.7-.3-1.4-.5-1.9-.5-1-.1-1.8.1-2.4.7-.7.6-.9 1.4-.6 2.3s.9 1.8 1.8 2.8c.7.8 1.3 1.3 2 1.6 1.2.6 2.2.5 3.1-.3.5-.5.9-1.1 1.1-1.8.1-.4.2-1 .2-1.7h.5c0 .8 0 1.5-.1 2-.2.9-.7 1.6-1.3 2.3-1 .9-2.2 1.4-3.4 1.5-1.4 0-2.6-.5-3.7-1.6-1-1.1-1.5-2.4-1.4-3.8.1-1.3.6-2.4 1.6-3.3 0-.5.5-.8 1.1-1.1" transform="translate(156.6008 42.2831)"/><path d="m0 122.5c.3-.3.4-.6.5-.8.1-.3 0-.6-.4-.9l-5.2-4.5c-.3-.3-.6-.4-.9-.3-.2.1-.4.3-.7.6l-.3-.2 3.3-3.7.3.2c-.3.3-.4.6-.5.8-.1.3 0 .6.4.9l5.2 4.5c.3.3.6.4.8.3.3-.1.5-.3.8-.6l.3.2-3.3 3.7z" transform="translate(165.8432 38.726)"/><path d="m0 112.9-.3-.2c.2-.3.4-.6.4-.8 0-.3-.1-.6-.5-.8l-5.6-4c-.3-.2-.6-.3-.9-.2-.2.1-.4.3-.6.6l-.3-.2 4.8-6.7 2.3 1.7-.2.3c-.8-.4-1.5-.5-2.1-.4-.5.2-1.1.7-1.8 1.6-.3.3-.4.6-.4.7 0 .2.1.3.3.5l2.7 1.9c.5-.7.7-1.2.6-1.6s-.4-.9-.9-1.5l.2-.3 3.8 2.8-.2.3c-.7-.4-1.3-.6-1.7-.5-.5.1-.9.4-1.4 1.1l2.8 2c.2.2.5.2.6.2.2 0 .4-.3.7-.7.5-.7.8-1.4.9-2.1 0-.7-.2-1.5-.7-2.4l.2-.3 2 2.2z" transform="translate(170.5649 43.5343)"/><path d="m0 94.9c.2-.5.3-.8.2-1s-.3-.4-.6-.6l-5.9-3.3c-.6.2-1 .2-1.1.3s-.2.1-.3.3l-.3-.2 1.4-2.6 7.6-1.4v-.1l-3.7-2c-.4-.2-.8-.3-1-.3-.3 0-.5.3-.8.7l-.3-.2 1.5-2.7.3.2c-.2.4-.2.7-.2.9s.2.4.6.6l7.4 4-.3.5-9.7 1.8v.1l4.9 2.7c.4.2.7.3.9.3.4 0 .7-.3 1-.8l.3.2-1.5 2.8z" transform="translate(176.5378 52.5479)"/><path d="m0 54.6c.4-.5.7-.8.7-.8.1-.2 0-.3 0-.5-.2-.1-.3-.3-.4-.3l.1-.4 3.1 1.2-.1.3c-.8 0-1.4.2-2 .4-1 .4-1.6.9-1.9 1.7-.3.9-.2 1.7.4 2.3.6.7 1.6 1.3 2.9 1.8 1 .4 1.8.6 2.5.6 1.3 0 2.2-.5 2.6-1.6.3-.7.3-1.4.2-2.1-.1-.4-.3-1-.6-1.6l.5-.3c.4.7.6 1.3.7 1.9.2.9.1 1.7-.2 2.6-.6 1.2-1.4 2.2-2.5 2.7-1.2.7-2.6.7-4 .1s-2.4-1.5-3-2.8c-.5-1.2-.5-2.4 0-3.7.3-.5.6-1 1-1.5" transform="translate(176.1131 72.6895)"/><path d="m0 52.9-.3-.1c.1-.4.1-.7.1-.9-.1-.3-.3-.5-.7-.6l-6.7-1.7c-.4-.1-.7 0-.9.2s-.3.4-.5.8l-.3-.1 2-7.9 2.8.7-.1.4c-.9-.1-1.6.1-2 .4s-.8 1.1-1.1 2.2c-.1.4-.1.7-.1.8.1.1.2.2.5.3l3.2.8c.2-.8.2-1.4 0-1.7-.2-.4-.7-.7-1.4-1l.1-.3 4.6 1.1-.2.3c-.8-.1-1.4 0-1.8.2s-.7.7-.9 1.5l3.3.8c.3.1.5 0 .7-.1.1-.1.3-.4.4-.9.2-.9.2-1.6 0-2.3s-.7-1.3-1.5-2l.1-.4 2.7 1.4z" transform="translate(186.4377 73.5616)"/><path d="m0 7.5c.3-.6.4-.9.4-1 0-.2 0-.3-.2-.5-.1 0-.2-.1-.4-.2v-.4l3.3.2v.3c-.7.4-1.3.7-1.8 1.1-.8.6-1.2 1.3-1.3 2.2s.3 1.7 1.1 2.1 1.9.7 3.3.8c1 .1 1.9 0 2.5-.2 1.3-.3 1.9-1.1 2-2.3.1-.7-.1-1.4-.5-2.1-.2-.4-.5-.8-1-1.4l.4-.4c.6.6 1 1.1 1.2 1.6.5.8.7 1.7.6 2.6-.1 1.4-.6 2.5-1.5 3.4-1 1-2.3 1.4-3.8 1.3s-2.8-.7-3.6-1.8c-.8-1-1.2-2.2-1.1-3.6 0-.5.1-1.1.4-1.7" transform="translate(180.7526 96.2466)"/><path d="m0-.3h-.4c0-.4-.1-.7-.2-.9s-.4-.3-.8-.3l-6.9.4c-.4 0-.7.2-.8.5-.1.2-.1.4-.1.9h-.4l-.4-8.3 2.9-.1v.4c-.9.2-1.5.6-1.8 1-.3.5-.5 1.2-.4 2.4 0 .4.1.7.2.8s.3.2.5.1l3.3-.2c0-.8-.2-1.3-.5-1.6s-.9-.5-1.7-.6v-.4l4.7-.2v.4c-.8.1-1.4.4-1.7.7s-.4.9-.4 1.7l3.4-.2c.3 0 .5-.1.6-.3s.1-.5.1-1c-.1-.9-.3-1.6-.6-2.2-.4-.6-1.1-1-2-1.4v-.4l3 .4z" transform="translate(190.3694 100.1279)"/><path d="m0-21.9c-.1-.5-.3-.8-.5-.9-.2-.2-.5-.2-.8-.1l-6.7 1.1c-.4.5-.6.8-.7.9s-.1.3-.1.4h-.3l-.5-3 5-5.8v-.1l-4.1.7c-.5.1-.8.2-1 .4s-.2.6-.2 1.1l-.4.1-.5-3 .3-.1c.1.4.3.7.4.8.3.4.5.4 1 .4l8.3-1.5.1.4-6.4 7.5v.1l5.5-1c.4-.1.7-.2.9-.3.3-.2.3-.6.3-1.2l.3-.1.4 3.1z" transform="translate(189.3831 110.9589)"/><path d="m0-39.6-2.5-8.1 2.7-.9.1.4c-.9.4-1.5 1-1.7 1.7-.1.4 0 .9.2 1.6l7.2-2.2c.5-.2.8-.3.9-.6.1-.2.1-.6-.1-1.1l.3-.1 1.5 4.8-.3.1c-.2-.5-.4-.9-.6-1s-.6-.1-1.1 0l-7.1 2.2c.2.7.5 1.1.8 1.4.6.5 1.3.7 2.3.5l.1.4z" transform="translate(178.3461 119.79)"/><path d="m0-65.6-.3.1c-.2-.4-.4-.6-.5-.7-.2-.2-.6-.2-.9 0l-6.3 2.8c-.4.2-.6.4-.6.7 0 .2 0 .5.2.8l-.3.1-3.4-7.5 2.6-1.2.1.3c-.8.5-1.2 1.1-1.3 1.6s0 1.3.5 2.4c.2.4.3.6.5.7.1.1.3.1.6-.1l3-1.3c-.3-.7-.7-1.2-1.1-1.3s-1-.1-1.8.1l-.2-.3 4.3-1.9.1.3c-.7.4-1.1.8-1.3 1.3-.2.4-.1 1 .2 1.7l3.1-1.4c.3-.1.4-.3.5-.5 0-.2 0-.5-.2-.9-.4-.8-.8-1.4-1.4-1.8s-1.4-.6-2.4-.6l-.2-.4 2.9-.7z" transform="translate(184.2322 132.8036)"/><path d="m0-89.4c-.4-.2-1-.1-1.8.4-.5.3-.8.6-1 .9-.3.5-.3 1.1.1 1.7.2.3.4.5.5.6s.3 0 .5-.1l3.1-1.9c-.5-.9-1-1.4-1.4-1.6m7.1 2.2c-.3-.4-.5-.6-.7-.7s-.6 0-1 .3l-5.4 3.2c-.5.3-.7.6-.8.8 0 .2.1.5.3.9l-.3.2-2.4-3.9c-.5-.8-.8-1.5-.9-2.1-.3-1.2.1-2.1 1-2.6.7-.4 1.3-.5 2-.2.5.2 1 .5 1.3.9l1.8-4.6c.1-.1.1-.2.1-.3s-.1-.2-.1-.3l.3-.2 1.5 2.5-2.1 5.1 2.4-1.5c.4-.3.7-.5.7-.7.1-.2 0-.6-.3-1l.3-.2 2.5 4.1z" transform="translate(172.2864 144.7078)"/></g><path d="m0 107.8c1.2-.2 2.4-.5 3.8-.9v9.3c0 1 0 1.1 1.5 1.2v.5h-5.1v-.6c1.5-.1 1.5-.1 1.5-1.2v-7c0-.7-.1-.9-.6-.9h-1.1z" fill="#fff" transform="translate(83.9216 46.0822)"/><path d="m0 112.1c0 1.4.8 2.6 2 2.6.4 0 .7-.1 1-.2.1-.6.1-1 .1-1.3 0-1.5-.5-3.5-1.8-3.5-1 .1-1.3 1.4-1.3 2.4m-1.7 7.7c2.5-.4 4.2-2.4 4.7-4.6l-.9.5c-.4.2-.7.3-.9.3-2 0-3.3-1.4-3.3-3.2 0-1.5 1.3-3.7 3.8-3.7s3.7 2 3.7 4.4c0 3-1.7 5.4-4.2 6.4-.7.3-2.1.6-2.8.6z" fill="#fff" transform="translate(93.47 43.9361)"/><path d="m0 107.7c1.2-.2 2.4-.5 3.8-.9v9.3c0 1 0 1.1 1.5 1.2v.6h-5.1v-.5c1.5-.1 1.5-.2 1.5-1.2v-7c0-.7-.1-.9-.6-.9h-1.1z" fill="#fff" transform="translate(100.9316 46.1278)"/><path d="m0 128v-.4c.9-.9 1.9-1.9 2.8-3 1.2-1.4 1.9-2.6 1.9-4.1 0-1.2-.6-2.1-1.8-2.1-1 0-1.7.7-2.2 1.5l-.5-.4 1.1-1.6c.6-.6 1.4-1 2.5-1 1.7 0 3.1 1.1 3.1 3 0 1.5-.8 2.5-2.3 4.2l-2.1 2.2h2.8c1 0 1.2 0 1.7-1l.6.2c-.2.9-.4 1.8-.6 2.6z" fill="#fff" transform="translate(108.3429 36.0137)"/><path d="m0-104.2c0 .9-.8 1.7-1.7 1.7s-1.7-.8-1.7-1.7.7-1.7 1.7-1.7c.9 0 1.7.7 1.7 1.7" fill="#9b0000" transform="translate(33.6682 152.1142)"/><path d="m0-104.2c0 .9-.7 1.7-1.7 1.7-.9 0-1.7-.8-1.7-1.7s.8-1.7 1.7-1.7c1 0 1.7.7 1.7 1.7" fill="#9b0000" transform="translate(169.8206 152.1142)"/><path d="m0 51.5c1.4 2.2 2.8 3.9 4.5 5.8-.3.1-.7.1-1.1.2-.2-.3-.7-.9-1.5-1.5-1.1-.9-2.8-1.7-4.9-1.5-3.9.5-5.6 3.2-5.6 3.3 0 0 1.4 1.2 3.3 2.2s4.2 1.8 5.8 1.4c3-.7 3-3 2.9-3.8.5 0 1-.1 1.3-.2 2 2.1 4.1 4.1 6.4 5.8 1.3 1 2.7 1.9 4.1 2.8-.4.1-1 .2-1.6.3 0-.1 0-.1 0-.1-.2-.2-.9-.8-1.7-1.5-1.3-.9-3.1-1.8-5.6-1.5-4.5.4-6.6 3-6.6 3.1 0 0 1.6 1.3 3.7 2.4s4.8 2 6.7 1.6c3.3-.7 3.5-2.9 3.4-3.8.8-.1 1.4-.1 1.9-.2 1.4.8 2.8 1.6 4.3 2.2-5.1 2.4-7.9 6.3-15.3 7.7 23.6 2.2 20.2-5.9 33.4-5.9 1.8 0 3.5.2 5 .6-4.3 1.7-8.7 3.6-14.4 5h-2c1.7.6 2.7 1.1 4.5 1.1 6.4 0 10.6-2.9 15.5-4.9 4.9 2 9.1 4.9 15.5 4.9 1.8 0 2.8-.5 4.5-1.1h-1.9c-5.8-1.4-10.1-3.3-14.4-5 1.5-.4 3.2-.6 5-.6 13.2 0 9.8 8.1 33.5 5.9-7.4-1.4-10.2-5.3-15.3-7.7 1.4-.7 2.9-1.4 4.2-2.2.5.1 1.1.2 1.9.2 0 .9.1 3.2 3.4 3.8 1.9.3 4.6-.5 6.7-1.6s3.7-2.4 3.7-2.4c0-.1-2.1-2.6-6.6-3-2.4-.3-4.2.6-5.6 1.5-.9.6-1.5 1.2-1.7 1.5v.1c-.6-.1-1.1-.2-1.6-.3 1.4-.9 2.8-1.8 4.1-2.8 2.3-1.7 4.4-3.7 6.3-5.8.4 0 .8.1 1.3.2 0 .8 0 3.1 2.9 3.8 1.6.4 3.9-.4 5.8-1.5 1.9-1 3.3-2.2 3.3-2.2 0-.1-1.7-2.8-5.6-3.3-2.1-.3-3.8.6-4.9 1.5-.8.6-1.4 1.2-1.5 1.5-.4-.1-.8-.1-1.1-.2 1.7-1.9 3-3.5 4.5-5.8 0 0 1-.5 1.5-.8.2.2.6.7 1.2 1.1 1 .5 2.6.9 4.7-.8 4.1-3 5.5-7.9 5.5-7.9s-5-.2-8 2c-2.8 2.1-3.3 4.6-3.5 5.4-.5.2-1 .5-1.3.6 1.6-2.4 3-5 4.1-7.7.5-.4 1.1-1 1.8-1.7.2.2.6.5 1.2.7 1 .3 2.5.4 4.2-1.4 3.3-3.4 4-8 4-8s-4.6.6-7.1 3c-2.1 2.5-2.1 5-2.1 5.6-.6.5-1.1 1-1.5 1.3 1.5-3.6 2.6-7.4 3.2-11.2.2-.2.4-.3.6-.6.2.2.6.6 1.3.8 1 .4 2.4.4 4-1.4 2.9-3.4 3.2-8.1 3.2-8.1s-4.5.2-6.6 2.8c-2 2.4-1.9 4.9-1.8 5.7-.2.2-.4.3-.5.4 0-.2.1-.4.1-.5.4-2.5.6-5.1.6-7.6.2-.3.4-.8.7-1.3.2.1.8.2 1.6 0 1.1-.2 2.5-1 3.3-3.6 1.5-4.9-.1-9.5-.1-9.5s-4.1 3.1-5.2 6.6c-.4 1.1-.5 2-.5 2.9-.2-2.4-.6-4.9-1.2-7.2.1-.3.2-.7.3-1.2.5.1 2.5.4 3.6-2.9 1.2-3.5-1.3-9.9-1.4-9.8-.1 0-2.3 1.8-3.3 5.8-.6 2.2-.3 3.9.2 5.2.3.8.6 1.3.8 1.6-.1.4-.2.7-.3.9-1-4.3-2.6-8.4-4.6-12.2.1-.4.1-.9.2-1.4.7.1 2.5.1 3.2-2.7.8-3.2-2.4-9.2-2.5-9.2s-2.3 1.6-2.9 5.3c-.3 2.1.3 3.7.9 4.9.5.8.9 1.4 1.1 1.6h.1c-.1.5-.1.9-.2 1.2-.9-1.6-1.8-3.1-2.8-4.6-.8-1.2-1.7-2.3-2.6-3.4 0-.4 0-.9-.1-1.4.6-.1 2.6-.6 2.6-3.8.1-3.5-4.6-8.8-4.7-8.7-.1 0-1.8 2.3-1.6 6.4.1 2.2 1.1 3.7 2 4.7.6.7 1.2 1.1 1.5 1.3v1.2c-1.9-2.3-4.1-4.4-6.4-6.3-.1-.4-.2-.9-.3-1.4.6-.2 2.3-1 1.8-3.9-.5-3.2-5.4-7.1-5.4-7 0 0-1.4 2.4-.5 6.1.4 2 1.5 3.2 2.5 4 .7.5 1.3.8 1.5.9.1.5.2.9.3 1.2-2.2-1.8-4.6-3.4-7.2-4.8-.2-.3-.6-.7-.9-1.1h.1c.3-.2 1.8-1.8.1-4.9-1.6-3.1-7-4.9-6.9-4.8 0 0 0 3 1.9 6.4 1 1.8 2.3 2.6 3.3 3 .6.2 1.1.3 1.4.3.3.3.5.7.7.9-3.5-1.9-7.3-3.3-11.2-4.2-.1-.2-.2-.7-.7-1.3-.7-.8-1.9-1.7-4-1.7-3.9 0-6 2-6 2 .1 0 3.8 2.4 6.6 2.6 2.6.2 3.8-1.1 4.1-1.5 2.6.6 5.1 1.4 7.5 2.5-.3 0-.8.1-1.2.1-.2-.2-.6-.6-1.3-1-1.1-.5-2.7-.9-4.5-.1-3.3 1.6-4.1 4.4-4.1 4.4s4.5.9 7.1.1c2.7-.9 2.9-2.8 2.8-3.3.6 0 1.1-.1 1.5-.1 2.7 1.2 5.2 2.6 7.6 4.3-.4 0-.8 0-1.3 0-.3-.6-1.7-2.5-4.6-2.5-3.2 0-5.8 3.7-5.8 3.7.1 0 2.6 1.5 6.1 1.6 1.9.1 3.1-.6 3.7-1.4.4-.5.6-1.1.7-1.3.6 0 1.1.1 1.5.1 2.3 1.6 4.4 3.4 6.4 5.4-.4 0-.8-.1-1.2-.2-.2-.5-1.2-2.8-4.4-3-3.3-.2-6.3 3.5-6.3 3.5.1 0 2.4 1.7 5.9 2.1 1.9.2 3.2-.5 3.9-1.3.5-.5.8-1 .9-1.2.6.1 1 .2 1.4.3 1.6 1.6 3.1 3.3 4.4 5.2-.2-.1-.5-.1-.8-.1-.1-.2-.4-.9-1-1.5-.8-.9-2.2-1.8-4.1-1.6-3.4.5-4.8 3-4.9 3 0-.1 3.8 2.5 6.5 2.6 2.6 0 3.3-1.6 3.4-2.3.4.1.7.1 1 .2.4.6.8 1.1 1.2 1.7 1.3 2.1 2.5 4.4 3.6 6.7-.5-.3-1.1-.7-1.8-1 0-.7-.3-3-3-4.4-2.8-1.4-6.7.7-6.7.7.1 0 1.6 2.5 4.7 4.2 1.7 1 3 .8 3.9.4.6-.3 1-.6 1.1-.8.8.5 1.5 1 2 1.3 1.2 2.7 2.2 5.5 2.9 8.4-.2-.2-.5-.4-.8-.6.2-.7.4-3.3-2.3-5.3-2.7-2.2-7.5-.9-7.5-.9.1.1 1.2 2.9 4.1 5.5 1.6 1.4 3.1 1.6 4.2 1.4.7-.1 1.2-.4 1.5-.6.4.3.7.6.9.9.6 2.3 1 4.6 1.2 7-.2-.2-.5-.4-.8-.6 0-.3.1-.9-.2-1.8-.3-1.2-1.2-2.6-3.2-3.4-3.7-1.3-6.6 0-6.6 0s2.4 4 5 5.4c2.5 1.3 4.2.4 4.8-.1.4.3.7.6 1 .8.4 4 .3 8-.2 12-.2-.3-.4-.6-.7-1 .1-.3.4-1.1.5-2.1.1-1.5-.3-3.4-2.1-4.9-3.3-2.6-6.6-1.9-6.6-2 .1 0 1.1 5.1 3.3 7.6 2.1 2.3 4.1 1.7 4.8 1.4.3.5.6.9.8 1.2-.1.6-.2 1.1-.3 1.7-.5 3-1.3 6-2.4 8.8-.1-.3-.3-.6-.4-1 .2-.3.6-.9.8-1.9.4-1.4.4-3.4-1.1-5.1-2.8-3.1-6.2-3.1-6.3-3.1.1 0 .1 5.2 1.8 8 1.7 2.6 3.8 2.4 4.6 2.2.2.5.4.9.5 1.3-1.3 3.5-3 6.8-5.1 9.9 0-.5 0-1 0-1.6.3-.2.6-.5.9-.9.8-1 1.5-2.8.6-5.1-1.7-4.3-5.1-6-5.1-6 .1 0-1.5 4.7-.7 8 .9 3.4 3.3 4.3 3.8 4.4.1 0 .2-.1.4-.2 0 .7 0 1.3-.1 1.8-1.9 2.9-4.2 5.5-6.6 7.9 0-.3.1-.7.1-1.1.7-.3 3.1-1.8 3.3-5.4.2-3.8-3.9-7.3-3.9-7.3 0 .1-1.8 2.8-2.3 7.1-.3 2.3.4 3.8 1.3 4.7.6.6 1.2.9 1.4 1-.1.5-.2.9-.2 1.3-1.6 1.5-3.3 2.9-5.1 4.1-.7.5-1.4 1-2.2 1.4.1-.2.1-.5.2-.8.9-.2 3.5-1.2 4.4-5.2 1-4.4-2.9-9.2-2.9-9.2-.1.1-2.4 2.8-3.6 7.4-.7 2.5-.2 4.3.5 5.5.5.8 1.1 1.3 1.3 1.5-.1.3-.2.7-.3.9-1.9 1.2-3.9 2.2-5.9 3.1-3.1-1.2-7.1-1.9-13.1-1.3-4.8.5-8.6 1.5-12.3 2.8-3.6-1.3-7.4-2.4-12.3-2.8-6.1-.6-10.1.1-13.2 1.3-2.1-.9-4.1-1.9-6-3.1-.1-.3-.2-.6-.3-.9.2-.2.8-.7 1.3-1.5.7-1.2 1.2-3 .5-5.5-1.2-4.5-3.5-7.3-3.6-7.3 0-.1-3.9 4.8-2.9 9.2.9 3.9 3.5 5 4.4 5.1.1.3.1.6.2.8-.7-.5-1.5-.9-2.2-1.4-1.8-1.2-3.5-2.6-5-4.1-.1-.4-.1-.8-.2-1.3.3-.1.8-.4 1.4-1 .8-.9 1.5-2.4 1.3-4.7-.5-4.3-2.3-7-2.3-7.1 0 0-4 3.5-3.9 7.3.5 3.7 2.9 5.2 3.7 5.5 0 .4.1.8.1 1.1-2.5-2.4-4.7-5-6.6-7.9 0-.5-.1-1.1-.1-1.8.2.1.3.2.4.2.5-.1 3-1 3.8-4.4.8-3.2-.8-7.9-.7-8 0 0-3.5 1.7-5.1 6-.9 2.4-.2 4.1.6 5.1.3.4.6.7.9.9v1.5c-2-3.1-3.7-6.4-5.1-9.9.1-.3.3-.8.5-1.3.7.2 2.9.4 4.6-2.2 1.7-2.8 1.7-8 1.8-8 0 0-3.4 0-6.3 3.1-1.5 1.7-1.5 3.7-1.1 5.1.2 1 .7 1.7.9 1.9-.2.4-.3.7-.4 1-1.1-2.8-1.9-5.8-2.4-8.8-.1-.6-.2-1.1-.3-1.7.2-.3.4-.8.7-1.2.7.3 2.7.9 4.8-1.4 2.2-2.4 3.2-7.6 3.3-7.6 0 0-3.3-.6-6.6 2-1.9 1.6-2.3 3.5-2.2 5 .1 1 .3 1.8.4 2.1-.2.4-.5.7-.7 1-.5-4-.6-8-.2-12 .3-.2.6-.5 1-.8.6.5 2.3 1.4 4.8.1 2.6-1.4 5-5.5 5.1-5.4 0 0-3-1.2-6.6 0-2 .7-2.9 2.2-3.2 3.4-.2.8-.2 1.5-.2 1.8 0 0 0 0 .1.1-.3.2-.6.4-.8.6.2-2.3.7-4.7 1.2-7 .2-.2.6-.5.9-.9.2.1.7.4 1.5.6 1.1.2 2.6 0 4.2-1.4 2.9-2.7 4-5.6 4.1-5.7 0 0-4.8-1.3-7.6.8-2.7 2.2-2.5 4.7-2.3 5.4-.3.2-.5.5-.8.7.8-2.9 1.7-5.7 3-8.5.5-.4 1.2-.8 2-1.3.2.2.6.5 1.1.8.9.4 2.3.6 3.9-.4 3.1-1.7 4.6-4.2 4.7-4.2 0 0-3.9-2.1-6.7-.7-2.7 1.4-3 3.8-3 4.4-.7.4-1.3.8-1.8 1.1 1.1-2.4 2.3-4.6 3.8-6.8.4-.6.8-1.1 1.2-1.7.3-.1.6-.1 1-.2 0 .6.8 2.3 3.3 2.2 2.7-.1 6.5-2.6 6.5-2.6s-1.5-2.4-4.9-3c-1.8-.2-3.2.7-4.1 1.6-.5.7-.8 1.4-.9 1.6-.3 0-.6.1-.8.1 1.3-1.8 2.8-3.6 4.4-5.2.4-.1.8-.2 1.4-.3.1.2.4.7.9 1.2.7.7 2 1.5 3.9 1.3 3.5-.3 5.9-2 5.9-2.1 0 0-3.1-3.7-6.3-3.5s-4.2 2.4-4.4 3c-.5.1-.9.1-1.2.2 2-2 4.1-3.8 6.4-5.4.4 0 .9-.1 1.5-.1.1.2.2.8.7 1.3.6.8 1.8 1.5 3.7 1.4 3.5-.2 6-1.6 6.1-1.6 0 0-2.6-3.7-5.8-3.7-3 0-4.3 1.9-4.6 2.5-.5 0-.9 0-1.3 0 2.4-1.7 5-3.1 7.6-4.3.4 0 .9 0 1.5.1 0 .5.2 2.4 2.8 3.3s7.1-.1 7.1-.1-.8-2.8-4.1-4.4c-1.8-.8-3.5-.4-4.5.1-.7.3-1.1.8-1.3 1-.5.1-.9 0-1.3 0 2.4-1.1 4.9-1.9 7.5-2.5.3.5 1.4 1.7 4.1 1.5 2.8-.2 6.5-2.7 6.6-2.7 0 0-2.1-2-6-2-2.1 0-3.4.9-4 1.7-.5.6-.6 1.1-.7 1.3-3.9.9-7.6 2.3-11.2 4.2.2-.3.5-.6.7-1 .3 0 .8-.1 1.4-.3 1-.4 2.3-1.2 3.3-3 1.9-3.4 2-6.3 1.9-6.4 0-.1-5.3 1.7-7 4.8-1.6 3.1-.1 4.6.1 4.9h.1c-.4.4-.7.8-.9 1.1-2.5 1.4-4.9 3-7.2 4.8.1-.3.1-.7.2-1.2.2-.1.8-.4 1.5-.9 1-.8 2.1-2 2.5-4 .8-3.7-.5-6.1-.5-6.1 0-.1-5 3.8-5.4 7-.4 2.9 1.3 3.7 1.8 3.9-.1.6-.3 1.1-.3 1.4-2.3 1.9-4.4 4-6.4 6.3 0-.3 0-.7 0-1.2.2-.2.8-.6 1.4-1.3.9-1 1.9-2.5 2-4.7.3-4.1-1.5-6.4-1.6-6.4-.1-.1-4.7 5.1-4.7 8.7 0 3.2 2 3.7 2.6 3.8 0 .6-.1 1.1-.1 1.4-.5 1.2-1.4 2.4-2.2 3.6-1 1.5-2 3-2.8 4.6-.1-.3-.1-.8-.2-1.2h.1c.2-.2.6-.8 1.1-1.6.6-1.2 1.2-2.8.9-4.9-.6-3.8-2.8-5.4-2.9-5.3-.1 0-3.3 6-2.5 9.2.7 2.8 2.5 2.8 3.2 2.7.1.5.1 1 .2 1.4-2 3.8-3.6 7.9-4.6 12.2-.1-.3-.2-.6-.3-.9.2-.3.5-.8.8-1.6.5-1.3.8-3 .2-5.2-1.1-4-3.3-5.8-3.3-5.8-.1-.1-2.6 6.4-1.4 9.8 1.1 3.3 3.1 3 3.6 2.9.1.5.2.9.3 1.2-.5 2.4-.9 4.8-1.2 7.2 0-.8-.1-1.8-.5-2.9-1.1-3.6-5.2-6.7-5.2-6.7s-1.6 4.5-.1 9.4c.8 2.6 2.2 3.4 3.3 3.6.8.1 1.4 0 1.6-.1.3.5.5 1 .7 1.3 0 2.6.2 5.1.6 7.7 0 .2.1.4.1.5-.2 0-.4-.2-.6-.3.1-.8.2-3.2-1.8-5.7-2.1-2.6-6.6-2.8-6.6-2.8s.2 4.8 3.1 8.1c1.6 1.8 3 1.7 4 1.4.6-.3 1.1-.6 1.3-.8.2.2.5.4.6.6.6 3.9 1.7 7.6 3.2 11.2-.4-.3-.9-.8-1.5-1.3 0-.6 0-3.1-2.4-5.6-2.4-2.4-7-3-7-3s.6 4.6 3.9 8c1.8 1.8 3.3 1.8 4.3 1.4.6-.2 1-.5 1.2-.7.7.7 1.4 1.3 1.8 1.7 1.2 2.7 2.5 5.3 4.1 7.8-.4-.2-.8-.4-1.3-.6-.1-.8-.7-3.3-3.5-5.4-2.9-2.2-7.9-2-7.9-2s1.3 4.9 5.4 7.9c2.2 1.6 3.8 1.3 4.8.8.7-.4 1.1-.9 1.2-1.1.5.3 1.1.5 1.5.7z" fill="#fff" transform="translate(53.3769 74.2466)"/><path d="m0 5.4-.2 6.7c1.3 1.2 2.4 2.4 2.4 3.5 0 2.1.1 3-4.6 5-4.7 2.1-9.1 5.1-9.5 8.9-.3 3.1 2.1 5.3 5.4 6.7l-.1-4.8c-1.1-1.5-.7-2.6.4-3.3 2.2-1.4 9.5-4.4 11.3-6.5 1.9-2 4.1-7.8-.6-12.6-1.5-1.6-3.1-2.7-4.5-3.6m.1 31c-.2-.1-.5-.3-.8-.4l-.1 2.5c2.4 1.3 3.5 3.1.5 5.4.1 0 8.4-3.1.4-7.5m-1.8-17.6.6-27.2-1.4.7c-1.4.7-2.6 1.4-3.5 2.1l.6 26.1 2.4-1.2c.5-.2 1-.3 1.3-.5m15.7-44c-.4-8.2-6.6-13.7-12.8-14.8-.1 0-.1 0-.2 0 0 1.8-.1 3.8-.1 5.8 4.8 1.2 7.4 5.6 6.9 8.9-.8 5.2-5.1 5.9-13.5 10.7-8.3 4.8-9.9 8.9-9.4 12.3.7 4.4 4.8 7.7 8.1 9.8l-.1-6.1c-2.9-2.4-4.6-6 4.1-10.3 8-4 17.3-8 17-16.3m-20.9-24.6.7 33.9 5.3-2.8.7-31.1c1-.9 1.6-2.1 1.6-3.5 0-2.6-2.2-4.7-5-4.7s-5 2.1-5 4.7c0 1.4.6 2.6 1.7 3.5m-9.4 18.1c-.4.5-1.3.7-1.7.4-.3-.3 0-1.1.4-1.5.4-.5 1.4-.8 1.7-.5.4.4 0 1.2-.4 1.6m4.1 2.3c1.1-1.4 2.4-2.8 4.3-3.8-.1-2.1-.1-4.1-.1-6-.2.1-.3.2-.5.2-1.8.7-5.8 1.5-7.3 2-2.4.9-5.4 3.9-6.8 8-.7 1.9-.6 3-.1 3.7l-.4.2-2.9 1.6 2-.5-.8 1.6 2.4-2.4c.6.3 1.4.4 2.1.2 1.9-.3 5.9-2 8.1-4.8m7 58.6.3 17.4h2.6l.4-19.1s-.1 0-.1.1c-1.3.6-2.5 1.2-3.2 1.6" fill="#fff" transform="translate(103.2148 97.2922)"/><path d="m0-173.1c.3.2.5.3.8.5.2.2.4.3.4.3.2-.3.3-.6.4-.9h-1.6zm-4.4-6c0-.3.1-.4.4-.3s1 .3 1.9.7 1.4 1 1.5 1.7 0 1.2-.1 1.5c-.3.6-.8.9-1.6.9-.6 0-1-.2-1.2-.6s-.3-.8-.2-1.1l.1-.7c0-.2 0-.3 0-.5-.1-.2-.1-.4-.2-.6s-.2-.4-.3-.6c-.3-.2-.3-.3-.3-.4m-2.8 6v.1s0 .1 0 .1v.3.4l1.1.1h4.3c.3-.3.6-.6 1-1zm-1.1-5.4c0-.1 0-.2.1-.3.1 0 .7.1 1.9.3 1.1.2 1.8.8 1.8 1.6.1.8.1 1.3 0 1.5-.1.3-.4.5-.7.7s-.7.3-1.1.2c-.4 0-.7-.2-.9-.4s-.3-.4-.3-.6-.1-.5-.1-.9-.1-.8-.2-1.1c-.1-.2-.2-.5-.4-.7 0-.1-.1-.2-.1-.3m1.1 6.9c-.2.3-.4.6-.6.9s-.6.4-1.2.4c-.5 0-.9-.2-1.1-.5-.3-.3-.4-.6-.4-.9s0-.5.1-.7.2-.4.4-.6l.5-.4c.3-.2.4-.4.5-.6s.1-.4.1-.5v-.5c0-.2 0-.3.2-.5.1-.2.3-.1.5.1.1.1.2.3.4.5.2.3.3.5.4.6h6.6c.1-.1.1-.3.2-.4s.2-.4.3-.9l.4-1.2c.1-.4.2-.8.3-1.3l.1-.7.1-.4c0-.1.1-.1.3-.1.6.1 1.2.3 1.8.5s1.1.5 1.4.7.4.4.2.7c-.1.1-.3.2-.8.4-.9 1-1.7 1.9-2.6 2.7h.9s0-.1.1-.1l.4-.4c.2-.2.4-.4.5-.4s.3 0 .7.2c.5.3 1 .7 1.4 1.1.4.5.6.9.6 1.2s-.2.5-.7.5c0 0-.1 0-.4-.1-.2 0-.4 0-.6 0-.6 0-1.2.3-1.9.8.2.3.2.5.2.6-.1.1-.2.2-.3.3s-.5.1-1.2.1-1.1.1-1.3.2l-.3.2c.5.2.7.4.7.6s-.2.4-.6.5h2.4l1.4-1.4c.2-.1.3-.2.4-.2s.3.1.6.2c.5.4.9.8 1.2 1.3s.4.9.3 1.1-.2.3-.4.3h-5.9v2.6c0 .6-.2 1.1-.5 1.4s-1.1.6-2.4.6c-.2 0-.4 0-.5 0s-.2-.1-.2-.1-.1-.3-.2-.7-.5-.8-1.4-1.1l-.4-.1c-.1 0-.2-.1-.2-.1-.1-.1-.1-.2-.1-.4s.1-.3.4-.3h.5l.8.1c.5 0 .8 0 .9-.1s.2-.2.2-.5v-1.3h-5.1l-1 .1-.8-1.5 1.2.1h5.7v-.1l-.1-1.5c0-.1 0-.1 0-.1 0-.1.1-.1.2 0 .7.1 1.2.2 1.5.3.1-.2.3-.4.4-.6h-3.9l-.7.1z" fill="#9b0000" transform="translate(102.6348 186.5297)"/></svg>